<svg width="60" height="26" viewBox="0 0 60 26" fill="none" xmlns="http://www.w3.org/2000/svg">
<rect y="-0.516998" width="60" height="25.85" fill="#FFE2BA"/>
<path d="M10.4663 12.691V20.627L13.3142 21.779L13.1223 22.483H5.18625L4.99425 21.779L6.75425 21.043C7.13825 20.8937 7.39425 20.7337 7.52225 20.563C7.67158 20.3923 7.74625 20.147 7.74625 19.827V3.507L4.99425 2.387L5.18625 1.683H20.0662V6.067L19.1063 6.291L17.5703 3.475L11.3303 3.347C10.7543 3.347 10.4663 3.67767 10.4663 4.339V10.995H15.5863L16.6103 8.787L17.3143 8.979V14.931L16.6103 15.123L16.0023 13.683C15.8529 13.299 15.6929 13.043 15.5223 12.915C15.3516 12.7657 15.1063 12.691 14.7863 12.691H10.4663Z" fill="#D90057"/>
<path d="M25.4852 -0.460999C25.4213 3.635 25.3893 7.859 25.3893 12.211C25.3893 16.5417 25.4213 21.011 25.4852 25.619L23.7253 25.939L23.3413 25.587C23.3839 21.555 23.4053 17.3737 23.4053 13.043C23.4053 8.691 23.3839 4.179 23.3413 -0.493L25.1013 -0.813L25.4852 -0.460999Z" fill="black"/>
<path d="M51.8393 4.339L52.5753 20.659L55.3273 21.779L55.1353 22.483H47.5513L47.3593 21.779L48.7993 21.075C49.4819 20.755 49.8126 20.339 49.7913 19.827L49.0873 4.147L42.9433 21.843L40.9593 22.483L40.3513 22.163L34.3673 4.179L33.4713 20.659L35.9033 21.779L35.7113 22.483H28.9913L28.7993 21.779L30.5593 21.043C31.0926 20.8083 31.4019 20.5737 31.4873 20.339C31.5086 20.2323 31.5299 20.0617 31.5513 19.827L32.3513 3.507L29.5993 2.387L29.7913 1.683H36.2552L36.6713 2.003L42.0793 18.707L47.7433 1.683H54.3993L54.5913 2.387L52.8313 3.123C52.1486 3.40033 51.8179 3.80567 51.8393 4.339Z" fill="#343635"/>
</svg>
