<svg width="105" height="24" viewBox="0 0 105 24" fill="none" xmlns="http://www.w3.org/2000/svg">
<path d="M4.42176 7.716V11.188L5.66776 11.692L5.58376 12H2.11176L2.02776 11.692L2.79776 11.37C2.96576 11.3047 3.07776 11.2347 3.13376 11.16C3.19909 11.0853 3.23176 10.978 3.23176 10.838V3.698L2.02776 3.208L2.11176 2.9H8.62176V4.818L8.20176 4.916L7.52976 3.684L4.79976 3.628C4.54776 3.628 4.42176 3.77267 4.42176 4.062V6.974H6.66176L7.10976 6.008L7.41776 6.092V8.696L7.10976 8.78L6.84376 8.15C6.77842 7.982 6.70842 7.87 6.63376 7.814C6.55909 7.74867 6.45176 7.716 6.31176 7.716H4.42176ZM9.05641 8.85C9.05641 7.82333 9.35041 7.02533 9.93841 6.456C10.5264 5.87733 11.2124 5.588 11.9964 5.588C12.7804 5.588 13.3731 5.82133 13.7744 6.288C14.1757 6.74533 14.3764 7.37533 14.3764 8.178V8.64L14.1664 8.85H10.2464C10.2651 9.56867 10.4657 10.1427 10.8484 10.572C11.2311 11.0013 11.7211 11.216 12.3184 11.216C12.9251 11.216 13.5037 11.0947 14.0544 10.852L14.2504 11.216C14.1384 11.328 14.0031 11.4447 13.8444 11.566C13.6857 11.678 13.4291 11.7993 13.0744 11.93C12.7291 12.0513 12.3651 12.112 11.9824 12.112C11.1144 12.112 10.4097 11.8273 9.86841 11.258C9.32708 10.6793 9.05641 9.87667 9.05641 8.85ZM11.8424 6.484C11.4037 6.484 11.0444 6.554 10.7644 6.694C10.6524 6.834 10.5404 7.058 10.4284 7.366C10.3257 7.674 10.2697 7.968 10.2604 8.248L13.2564 8.164C13.2564 7.044 12.7851 6.484 11.8424 6.484ZM18.9835 6.512C18.7408 6.512 18.4515 6.54933 18.1155 6.624C17.7888 6.68933 17.5602 6.75 17.4295 6.806V11.244L18.6755 11.692L18.5915 12H15.3155L15.2315 11.692L15.8615 11.426C16.0295 11.3607 16.1415 11.2907 16.1975 11.216C16.2628 11.1413 16.2955 11.034 16.2955 10.894V6.708L15.3155 6.554L15.2315 6.246L17.0375 5.588L17.3175 5.7L17.3735 6.218L17.4295 6.246C17.5602 6.14333 17.8262 6.01733 18.2275 5.868C18.6382 5.70933 18.9415 5.616 19.1375 5.588C19.3335 5.644 19.5435 5.76533 19.7675 5.952C19.9915 6.12933 20.1455 6.29733 20.2295 6.456L19.3195 7.674L18.9835 7.576V6.512ZM25.6856 7.898C25.6856 7.422 25.5736 7.08133 25.3496 6.876C25.1349 6.66133 24.7849 6.554 24.2996 6.554C23.8142 6.554 23.3289 6.61467 22.8436 6.736V11.244L23.9496 11.692L23.8656 12H20.7296L20.6456 11.692L21.2756 11.426C21.4436 11.3607 21.5556 11.2907 21.6116 11.216C21.6769 11.1413 21.7096 11.034 21.7096 10.894V6.708L20.7296 6.554L20.6456 6.246L22.4516 5.588L22.7316 5.7L22.7596 6.092L22.8156 6.12C23.4596 5.76533 24.1222 5.588 24.8036 5.588C26.1476 5.588 26.8196 6.302 26.8196 7.73V11.244L27.9256 11.692L27.8416 12H24.7056L24.6216 11.692L25.2516 11.426C25.4196 11.3607 25.5316 11.2907 25.5876 11.216C25.6529 11.1413 25.6856 11.034 25.6856 10.894V7.898ZM29.5758 10.138C29.5758 10.53 29.6832 10.8053 29.8978 10.964C30.1125 11.1227 30.3598 11.202 30.6398 11.202C30.9292 11.202 31.3118 11.1227 31.7878 10.964L31.8158 9.34C30.6212 9.40533 29.8792 9.61067 29.5898 9.956C29.5805 10.0027 29.5758 10.0633 29.5758 10.138ZM31.8018 11.58C31.1952 11.9347 30.6398 12.112 30.1358 12.112C29.6318 12.112 29.2305 11.9533 28.9318 11.636C28.6425 11.3093 28.4978 10.8987 28.4978 10.404C28.4978 9.9 28.7405 9.51267 29.2258 9.242C29.7205 8.97133 30.5838 8.79867 31.8158 8.724L31.8298 7.814C31.8392 7.394 31.7365 7.058 31.5218 6.806C31.3165 6.54467 31.0318 6.414 30.6678 6.414C30.3038 6.414 29.9865 6.456 29.7158 6.54L29.6038 7.604L29.2678 7.702L28.4978 6.61C28.7032 6.37667 29.0112 6.148 29.4218 5.924C29.8325 5.7 30.3225 5.588 30.8918 5.588C32.2825 5.588 32.9778 6.43267 32.9778 8.122L32.9078 11.244L33.8738 11.58L33.7898 11.888L32.5998 12.112L32.3198 12L31.8718 11.608L31.8018 11.58ZM39.3711 7.898C39.3711 7.422 39.2591 7.08133 39.0351 6.876C38.8205 6.66133 38.4705 6.554 37.9851 6.554C37.4998 6.554 37.0145 6.61467 36.5291 6.736V11.244L37.6351 11.692L37.5511 12H34.4151L34.3311 11.692L34.9611 11.426C35.1291 11.3607 35.2411 11.2907 35.2971 11.216C35.3625 11.1413 35.3951 11.034 35.3951 10.894V6.708L34.4151 6.554L34.3311 6.246L36.1371 5.588L36.4171 5.7L36.4451 6.092L36.5011 6.12C37.1451 5.76533 37.8078 5.588 38.4891 5.588C39.8331 5.588 40.5051 6.302 40.5051 7.73V11.244L41.6111 11.692L41.5271 12H38.3911L38.3071 11.692L38.9371 11.426C39.1051 11.3607 39.2171 11.2907 39.2731 11.216C39.3385 11.1413 39.3711 11.034 39.3711 10.894V7.898ZM46.6634 11.58C46.0567 11.9347 45.3754 12.112 44.6194 12.112C43.8634 12.112 43.266 11.7993 42.8274 11.174C42.398 10.5487 42.1834 9.746 42.1834 8.766C42.1834 7.77667 42.4774 7.002 43.0654 6.442C43.6627 5.87267 44.4187 5.588 45.3334 5.588C45.7347 5.588 46.1034 5.616 46.4394 5.672L46.6354 5.714V3.488L45.6554 3.334L45.5714 3.026L47.4894 2.368L47.7694 2.48V11.244L48.7354 11.692L48.6514 12L47.3214 12.112L47.1254 12.028L46.7194 11.608L46.6634 11.58ZM46.6354 6.68C46.262 6.54933 45.8 6.484 45.2494 6.484C44.708 6.484 44.2554 6.554 43.8914 6.694C43.546 7.15133 43.3734 7.81867 43.3734 8.696C43.3734 10.3293 43.9894 11.146 45.2214 11.146C45.6787 11.146 46.15 11.0853 46.6354 10.964V6.68ZM49.4978 8.85C49.4978 7.82333 49.7918 7.02533 50.3798 6.456C50.9678 5.87733 51.6538 5.588 52.4378 5.588C53.2218 5.588 53.8145 5.82133 54.2158 6.288C54.6172 6.74533 54.8178 7.37533 54.8178 8.178V8.64L54.6078 8.85H50.6878C50.7065 9.56867 50.9072 10.1427 51.2898 10.572C51.6725 11.0013 52.1625 11.216 52.7598 11.216C53.3665 11.216 53.9452 11.0947 54.4958 10.852L54.6918 11.216C54.5798 11.328 54.4445 11.4447 54.2858 11.566C54.1272 11.678 53.8705 11.7993 53.5158 11.93C53.1705 12.0513 52.8065 12.112 52.4238 12.112C51.5558 12.112 50.8512 11.8273 50.3098 11.258C49.7685 10.6793 49.4978 9.87667 49.4978 8.85ZM52.2838 6.484C51.8452 6.484 51.4858 6.554 51.2058 6.694C51.0938 6.834 50.9818 7.058 50.8698 7.366C50.7672 7.674 50.7112 7.968 50.7018 8.248L53.6978 8.164C53.6978 7.044 53.2265 6.484 52.2838 6.484ZM59.0749 6.484C58.8602 6.39067 58.5289 6.344 58.0809 6.344C57.6422 6.344 57.3109 6.456 57.0869 6.68C57.0029 6.81067 56.9609 6.96467 56.9609 7.142C56.9609 7.534 57.1989 7.81867 57.6749 7.996L59.1029 8.5C59.5042 8.64 59.8262 8.86867 60.0689 9.186C60.3116 9.494 60.4329 9.858 60.4329 10.278C60.4329 10.866 60.2089 11.3187 59.7609 11.636C59.3129 11.9533 58.7856 12.112 58.1789 12.112C57.5816 12.112 57.0776 12.014 56.6669 11.818C56.2656 11.6127 55.9716 11.398 55.7849 11.174L56.4989 10.012L56.8489 10.11L56.9049 11.048C57.2316 11.2347 57.6469 11.328 58.1509 11.328C59.0002 11.328 59.4249 11.0387 59.4249 10.46C59.4249 10.2267 59.3502 10.04 59.2009 9.9C59.0516 9.76 58.8089 9.634 58.4729 9.522L57.1849 9.102C56.8022 8.97133 56.5082 8.75667 56.3029 8.458C56.0976 8.15933 55.9949 7.82333 55.9949 7.45C55.9949 6.862 56.2282 6.40467 56.6949 6.078C57.1616 5.75133 57.7029 5.588 58.3189 5.588C58.6922 5.588 59.0422 5.66267 59.3689 5.812C59.8262 6.008 60.1342 6.22733 60.2929 6.47L59.5229 7.562L59.1869 7.464L59.0749 6.484Z" fill="#D90057"/>
<path d="M71.3721 4.062L71.6941 11.202L72.8981 11.692L72.8141 12H69.4961L69.4121 11.692L70.0421 11.384C70.3407 11.244 70.4854 11.062 70.4761 10.838L70.1681 3.978L67.4801 11.72L66.6121 12L66.3461 11.86L63.7281 3.992L63.3361 11.202L64.4001 11.692L64.3161 12H61.3761L61.2921 11.692L62.0621 11.37C62.2954 11.2673 62.4307 11.1647 62.4681 11.062C62.4774 11.0153 62.4867 10.9407 62.4961 10.838L62.8461 3.698L61.6421 3.208L61.7261 2.9H64.5541L64.7361 3.04L67.1021 10.348L69.5801 2.9H72.4921L72.5761 3.208L71.8061 3.53C71.5074 3.65133 71.3627 3.82867 71.3721 4.062ZM74.6546 8.696C74.6546 10.376 75.294 11.216 76.5726 11.216C77.0393 11.216 77.4406 11.146 77.7766 11.006C78.122 10.558 78.2946 9.89067 78.2946 9.004C78.2946 7.324 77.6553 6.484 76.3766 6.484C75.91 6.484 75.5086 6.554 75.1726 6.694C74.8273 7.142 74.6546 7.80933 74.6546 8.696ZM76.3906 12.112C75.5226 12.112 74.818 11.8273 74.2766 11.258C73.7353 10.6887 73.4646 9.886 73.4646 8.85C73.4646 7.80467 73.7633 7.002 74.3606 6.442C74.958 5.87267 75.6906 5.588 76.5586 5.588C77.4266 5.588 78.1313 5.87267 78.6726 6.442C79.214 7.01133 79.4846 7.81867 79.4846 8.864C79.4846 9.9 79.186 10.7027 78.5886 11.272C77.9913 11.832 77.2586 12.112 76.3906 12.112ZM84.1026 6.512C83.86 6.512 83.5706 6.54933 83.2346 6.624C82.908 6.68933 82.6793 6.75 82.5486 6.806V11.244L83.7946 11.692L83.7106 12H80.4346L80.3506 11.692L80.9806 11.426C81.1486 11.3607 81.2606 11.2907 81.3166 11.216C81.382 11.1413 81.4146 11.034 81.4146 10.894V6.708L80.4346 6.554L80.3506 6.246L82.1566 5.588L82.4366 5.7L82.4926 6.218L82.5486 6.246C82.6793 6.14333 82.9453 6.01733 83.3466 5.868C83.7573 5.70933 84.0606 5.616 84.2566 5.588C84.4526 5.644 84.6626 5.76533 84.8866 5.952C85.1106 6.12933 85.2646 6.29733 85.3486 6.456L84.4386 7.674L84.1026 7.576V6.512ZM87.0387 10.138C87.0387 10.53 87.146 10.8053 87.3607 10.964C87.5754 11.1227 87.8227 11.202 88.1027 11.202C88.392 11.202 88.7747 11.1227 89.2507 10.964L89.2787 9.34C88.084 9.40533 87.342 9.61067 87.0527 9.956C87.0434 10.0027 87.0387 10.0633 87.0387 10.138ZM89.2647 11.58C88.658 11.9347 88.1027 12.112 87.5987 12.112C87.0947 12.112 86.6934 11.9533 86.3947 11.636C86.1054 11.3093 85.9607 10.8987 85.9607 10.404C85.9607 9.9 86.2034 9.51267 86.6887 9.242C87.1834 8.97133 88.0467 8.79867 89.2787 8.724L89.2927 7.814C89.302 7.394 89.1994 7.058 88.9847 6.806C88.7794 6.54467 88.4947 6.414 88.1307 6.414C87.7667 6.414 87.4494 6.456 87.1787 6.54L87.0667 7.604L86.7307 7.702L85.9607 6.61C86.166 6.37667 86.474 6.148 86.8847 5.924C87.2954 5.7 87.7854 5.588 88.3547 5.588C89.7454 5.588 90.4407 6.43267 90.4407 8.122L90.3707 11.244L91.3367 11.58L91.2527 11.888L90.0627 12.112L89.7827 12L89.3347 11.608L89.2647 11.58ZM91.99 8.85C91.99 7.82333 92.284 7.02533 92.872 6.456C93.46 5.87733 94.146 5.588 94.93 5.588C95.714 5.588 96.3067 5.82133 96.708 6.288C97.1093 6.74533 97.31 7.37533 97.31 8.178V8.64L97.1 8.85H93.18C93.1987 9.56867 93.3993 10.1427 93.782 10.572C94.1647 11.0013 94.6547 11.216 95.252 11.216C95.8587 11.216 96.4373 11.0947 96.988 10.852L97.184 11.216C97.072 11.328 96.9367 11.4447 96.778 11.566C96.6193 11.678 96.3627 11.7993 96.008 11.93C95.6627 12.0513 95.2987 12.112 94.916 12.112C94.048 12.112 93.3433 11.8273 92.802 11.258C92.2607 10.6793 91.99 9.87667 91.99 8.85ZM94.776 6.484C94.3373 6.484 93.978 6.554 93.698 6.694C93.586 6.834 93.474 7.058 93.362 7.366C93.2593 7.674 93.2033 7.968 93.194 8.248L96.19 8.164C96.19 7.044 95.7187 6.484 94.776 6.484ZM101.567 6.484C101.352 6.39067 101.021 6.344 100.573 6.344C100.134 6.344 99.8031 6.456 99.5791 6.68C99.4951 6.81067 99.4531 6.96467 99.4531 7.142C99.4531 7.534 99.6911 7.81867 100.167 7.996L101.595 8.5C101.996 8.64 102.318 8.86867 102.561 9.186C102.804 9.494 102.925 9.858 102.925 10.278C102.925 10.866 102.701 11.3187 102.253 11.636C101.805 11.9533 101.278 12.112 100.671 12.112C100.074 12.112 99.5698 12.014 99.1591 11.818C98.7578 11.6127 98.4638 11.398 98.2771 11.174L98.9911 10.012L99.3411 10.11L99.3971 11.048C99.7238 11.2347 100.139 11.328 100.643 11.328C101.492 11.328 101.917 11.0387 101.917 10.46C101.917 10.2267 101.842 10.04 101.693 9.9C101.544 9.76 101.301 9.634 100.965 9.522L99.6771 9.102C99.2944 8.97133 99.0004 8.75667 98.7951 8.458C98.5898 8.15933 98.4871 7.82333 98.4871 7.45C98.4871 6.862 98.7204 6.40467 99.1871 6.078C99.6538 5.75133 100.195 5.588 100.811 5.588C101.184 5.588 101.534 5.66267 101.861 5.812C102.318 6.008 102.626 6.22733 102.785 6.47L102.015 7.562L101.679 7.464L101.567 6.484Z" fill="#343635"/>
<path d="M24.7611 18.07C24.7611 17.73 24.6811 17.4867 24.5211 17.34C24.3677 17.1867 24.1144 17.11 23.7611 17.11C23.4077 17.11 23.0311 17.1633 22.6311 17.27C22.6977 17.49 22.7311 17.7167 22.7311 17.95V20.46L23.5211 20.78L23.4611 21H21.2211L21.1611 20.78L21.6111 20.59C21.7311 20.5433 21.8111 20.4933 21.8511 20.44C21.8977 20.3867 21.9211 20.31 21.9211 20.21V18.07C21.9211 17.73 21.8411 17.4867 21.6811 17.34C21.5277 17.1867 21.2777 17.11 20.9311 17.11C20.5844 17.11 20.2377 17.1533 19.8911 17.24V20.46L20.6811 20.78L20.6211 21H18.3811L18.3211 20.78L18.7711 20.59C18.8911 20.5433 18.9711 20.4933 19.0111 20.44C19.0577 20.3867 19.0811 20.31 19.0811 20.21V17.22L18.3811 17.11L18.3211 16.89L19.6111 16.42L19.8111 16.5L19.8311 16.78L19.8711 16.8C20.3311 16.5467 20.8111 16.42 21.3111 16.42C21.8111 16.42 22.1811 16.57 22.4211 16.87C23.0077 16.57 23.5644 16.42 24.0911 16.42C25.0777 16.42 25.5711 16.93 25.5711 17.95V20.46L26.3611 20.78L26.3011 21H24.0611L24.0011 20.78L24.4511 20.59C24.5711 20.5433 24.6511 20.4933 24.6911 20.44C24.7377 20.3867 24.7611 20.31 24.7611 20.21V18.07ZM27.5416 19.67C27.5416 19.95 27.6183 20.1467 27.7716 20.26C27.9249 20.3733 28.1016 20.43 28.3016 20.43C28.5083 20.43 28.7816 20.3733 29.1216 20.26L29.1416 19.1C28.2883 19.1467 27.7583 19.2933 27.5516 19.54C27.5449 19.5733 27.5416 19.6167 27.5416 19.67ZM29.1316 20.7C28.6983 20.9533 28.3016 21.08 27.9416 21.08C27.5816 21.08 27.2949 20.9667 27.0816 20.74C26.8749 20.5067 26.7716 20.2133 26.7716 19.86C26.7716 19.5 26.9449 19.2233 27.2916 19.03C27.6449 18.8367 28.2616 18.7133 29.1416 18.66L29.1516 18.01C29.1583 17.71 29.0849 17.47 28.9316 17.29C28.7849 17.1033 28.5816 17.01 28.3216 17.01C28.0616 17.01 27.8349 17.04 27.6416 17.1L27.5616 17.86L27.3216 17.93L26.7716 17.15C26.9183 16.9833 27.1383 16.82 27.4316 16.66C27.7249 16.5 28.0749 16.42 28.4816 16.42C29.4749 16.42 29.9716 17.0233 29.9716 18.23L29.9216 20.46L30.6116 20.7L30.5516 20.92L29.7016 21.08L29.5016 21L29.1816 20.72L29.1316 20.7ZM33.6182 17.08C33.4449 17.08 33.2382 17.1067 32.9982 17.16C32.7649 17.2067 32.6016 17.25 32.5082 17.29V20.46L33.3982 20.78L33.3382 21H30.9982L30.9382 20.78L31.3882 20.59C31.5082 20.5433 31.5882 20.4933 31.6282 20.44C31.6749 20.3867 31.6982 20.31 31.6982 20.21V17.22L30.9982 17.11L30.9382 16.89L32.2282 16.42L32.4282 16.5L32.4682 16.87L32.5082 16.89C32.6016 16.8167 32.7916 16.7267 33.0782 16.62C33.3716 16.5067 33.5882 16.44 33.7282 16.42C33.8682 16.46 34.0182 16.5467 34.1782 16.68C34.3382 16.8067 34.4482 16.9267 34.5082 17.04L33.8582 17.91L33.6182 17.84V17.08ZM38.3754 21L36.3454 18.58L37.9154 17.04L37.2054 16.72L37.2654 16.5H39.2854L39.3454 16.72L38.8954 16.91C38.7354 16.9767 38.5354 17.13 38.2954 17.37L37.2254 18.41L38.9454 20.46L39.7054 20.78L39.6454 21H38.3754ZM35.4254 20.21V14.92L34.7254 14.81L34.6654 14.59L36.0354 14.12L36.2354 14.2V20.46L37.0254 20.78L36.9654 21H34.7254L34.6654 20.78L35.1154 20.59C35.2354 20.5433 35.3154 20.4933 35.3554 20.44C35.4021 20.3867 35.4254 20.31 35.4254 20.21ZM39.7794 18.75C39.7794 18.0167 39.9894 17.4467 40.4094 17.04C40.8294 16.6267 41.3194 16.42 41.8794 16.42C42.4394 16.42 42.8627 16.5867 43.1494 16.92C43.4361 17.2467 43.5794 17.6967 43.5794 18.27V18.6L43.4294 18.75H40.6294C40.6427 19.2633 40.7861 19.6733 41.0594 19.98C41.3327 20.2867 41.6827 20.44 42.1094 20.44C42.5427 20.44 42.9561 20.3533 43.3494 20.18L43.4894 20.44C43.4094 20.52 43.3127 20.6033 43.1994 20.69C43.0861 20.77 42.9027 20.8567 42.6494 20.95C42.4027 21.0367 42.1427 21.08 41.8694 21.08C41.2494 21.08 40.7461 20.8767 40.3594 20.47C39.9727 20.0567 39.7794 19.4833 39.7794 18.75ZM41.7694 17.06C41.4561 17.06 41.1994 17.11 40.9994 17.21C40.9194 17.31 40.8394 17.47 40.7594 17.69C40.6861 17.91 40.6461 18.12 40.6394 18.32L42.7794 18.26C42.7794 17.46 42.4427 17.06 41.7694 17.06ZM44.8102 20.11V16.98H44.1102L44.0502 16.76L44.8102 16.42L45.2502 15.49L45.6202 15.56V16.5H46.8102L46.9202 16.62L46.8202 17L45.6202 16.96V19.88C45.6202 20.1267 45.6702 20.31 45.7702 20.43C45.8702 20.5433 46.0469 20.6 46.3002 20.6H46.8702L46.9202 20.88C46.5002 21.0133 46.1302 21.08 45.8102 21.08C45.4902 21.08 45.2435 20.99 45.0702 20.81C44.8969 20.63 44.8102 20.3967 44.8102 20.11ZM47.9971 20.21V17.22L47.2971 17.11L47.2371 16.89L48.6071 16.42L48.8071 16.5V20.46L49.5971 20.78L49.5371 21H47.2971L47.2371 20.78L47.6871 20.59C47.8071 20.5433 47.8871 20.4933 47.9271 20.44C47.9737 20.3867 47.9971 20.31 47.9971 20.21ZM48.3471 15.38C48.1937 15.38 48.0637 15.33 47.9571 15.23C47.8571 15.1233 47.8071 14.9933 47.8071 14.84C47.8071 14.68 47.8571 14.5467 47.9571 14.44C48.0637 14.3333 48.1937 14.28 48.3471 14.28C48.5071 14.28 48.6404 14.3333 48.7471 14.44C48.8537 14.5467 48.9071 14.68 48.9071 14.84C48.9071 14.9933 48.8537 15.1233 48.7471 15.23C48.6404 15.33 48.5071 15.38 48.3471 15.38ZM53.5519 18.07C53.5519 17.73 53.4719 17.4867 53.3119 17.34C53.1586 17.1867 52.9086 17.11 52.5619 17.11C52.2152 17.11 51.8686 17.1533 51.5219 17.24V20.46L52.3119 20.78L52.2519 21H50.0119L49.9519 20.78L50.4019 20.59C50.5219 20.5433 50.6019 20.4933 50.6419 20.44C50.6886 20.3867 50.7119 20.31 50.7119 20.21V17.22L50.0119 17.11L49.9519 16.89L51.2419 16.42L51.4419 16.5L51.4619 16.78L51.5019 16.8C51.9619 16.5467 52.4352 16.42 52.9219 16.42C53.8819 16.42 54.3619 16.93 54.3619 17.95V20.46L55.1519 20.78L55.0919 21H52.8519L52.7919 20.78L53.2419 20.59C53.3619 20.5433 53.4419 20.4933 53.4819 20.44C53.5286 20.3867 53.5519 20.31 53.5519 20.21V18.07ZM58.6607 16.94C58.934 17.2333 59.0707 17.6167 59.0707 18.09C59.0707 18.5567 58.904 18.9433 58.5707 19.25C58.244 19.55 57.8207 19.7 57.3007 19.7C57.1673 19.7 57.0407 19.69 56.9207 19.67C56.7407 19.8433 56.6507 20.0167 56.6507 20.19C56.6507 20.25 56.6973 20.29 56.7907 20.31C56.884 20.3233 57.304 20.3633 58.0507 20.43C58.4707 20.47 58.8173 20.5967 59.0907 20.81C59.3707 21.0233 59.5107 21.3567 59.5107 21.81C59.5107 22.2633 59.3107 22.6367 58.9107 22.93C58.5173 23.23 58.0007 23.38 57.3607 23.38C56.7273 23.38 56.2373 23.26 55.8907 23.02C55.544 22.7867 55.3707 22.4733 55.3707 22.08C55.3707 21.6 55.6173 21.19 56.1107 20.85C56.004 20.73 55.9507 20.6 55.9507 20.46C55.9507 20.3133 55.9973 20.1533 56.0907 19.98C56.184 19.8 56.304 19.6467 56.4507 19.52C56.1707 19.3867 55.9507 19.1933 55.7907 18.94C55.6373 18.6867 55.5607 18.3933 55.5607 18.06C55.5607 17.5667 55.724 17.1667 56.0507 16.86C56.3773 16.5533 56.7973 16.4 57.3107 16.4C57.684 16.4 58.014 16.4867 58.3007 16.66C58.574 16.32 58.804 16.08 58.9907 15.94L59.4207 16.44L59.3607 16.59C58.9807 16.7767 58.7473 16.8933 58.6607 16.94ZM56.5107 21.08C56.264 21.3067 56.1407 21.57 56.1407 21.87C56.1407 22.1767 56.264 22.41 56.5107 22.57C56.764 22.73 57.104 22.81 57.5307 22.81C57.964 22.81 58.3307 22.72 58.6307 22.54C58.7373 22.3867 58.7907 22.1767 58.7907 21.91C58.7907 21.6433 58.7073 21.4667 58.5407 21.38C58.374 21.2933 58.1273 21.2333 57.8007 21.2C57.354 21.1533 57.0007 21.13 56.7407 21.13C56.674 21.1233 56.5973 21.1067 56.5107 21.08ZM56.3407 18.07C56.3407 18.3967 56.4273 18.6533 56.6007 18.84C56.774 19.02 57.014 19.11 57.3207 19.11C57.634 19.11 57.8807 19.0567 58.0607 18.95C58.114 18.8833 58.1607 18.7567 58.2007 18.57C58.2473 18.3833 58.2707 18.2033 58.2707 18.03C58.2707 17.7033 58.184 17.45 58.0107 17.27C57.8373 17.0833 57.594 16.99 57.2807 16.99C56.974 16.99 56.7307 17.0433 56.5507 17.15C56.4973 17.2167 56.4473 17.3433 56.4007 17.53C56.3607 17.7167 56.3407 17.8967 56.3407 18.07ZM65.4208 20.7C64.9875 20.9533 64.5008 21.08 63.9608 21.08C63.4208 21.08 62.9942 20.8567 62.6808 20.41C62.3742 19.9633 62.2208 19.39 62.2208 18.69C62.2208 17.9833 62.4308 17.43 62.8508 17.03C63.2775 16.6233 63.8175 16.42 64.4708 16.42C64.7575 16.42 65.0208 16.44 65.2608 16.48L65.4008 16.51V14.92L64.7008 14.81L64.6408 14.59L66.0108 14.12L66.2108 14.2V20.46L66.9008 20.78L66.8408 21L65.8908 21.08L65.7508 21.02L65.4608 20.72L65.4208 20.7ZM65.4008 17.2C65.1342 17.1067 64.8042 17.06 64.4108 17.06C64.0242 17.06 63.7008 17.11 63.4408 17.21C63.1942 17.5367 63.0708 18.0133 63.0708 18.64C63.0708 19.8067 63.5108 20.39 64.3908 20.39C64.7175 20.39 65.0542 20.3467 65.4008 20.26V17.2ZM68.0654 20.21V17.22L67.3654 17.11L67.3054 16.89L68.6754 16.42L68.8754 16.5V20.46L69.6654 20.78L69.6054 21H67.3654L67.3054 20.78L67.7554 20.59C67.8754 20.5433 67.9554 20.4933 67.9954 20.44C68.0421 20.3867 68.0654 20.31 68.0654 20.21ZM68.4154 15.38C68.2621 15.38 68.1321 15.33 68.0254 15.23C67.9254 15.1233 67.8754 14.9933 67.8754 14.84C67.8754 14.68 67.9254 14.5467 68.0254 14.44C68.1321 14.3333 68.2621 14.28 68.4154 14.28C68.5754 14.28 68.7088 14.3333 68.8154 14.44C68.9221 14.5467 68.9754 14.68 68.9754 14.84C68.9754 14.9933 68.9221 15.1233 68.8154 15.23C68.7088 15.33 68.5754 15.38 68.4154 15.38ZM73.2603 16.94C73.5336 17.2333 73.6703 17.6167 73.6703 18.09C73.6703 18.5567 73.5036 18.9433 73.1703 19.25C72.8436 19.55 72.4203 19.7 71.9003 19.7C71.7669 19.7 71.6403 19.69 71.5203 19.67C71.3403 19.8433 71.2503 20.0167 71.2503 20.19C71.2503 20.25 71.2969 20.29 71.3903 20.31C71.4836 20.3233 71.9036 20.3633 72.6503 20.43C73.0703 20.47 73.4169 20.5967 73.6903 20.81C73.9703 21.0233 74.1103 21.3567 74.1103 21.81C74.1103 22.2633 73.9103 22.6367 73.5103 22.93C73.1169 23.23 72.6003 23.38 71.9603 23.38C71.3269 23.38 70.8369 23.26 70.4903 23.02C70.1436 22.7867 69.9703 22.4733 69.9703 22.08C69.9703 21.6 70.2169 21.19 70.7103 20.85C70.6036 20.73 70.5503 20.6 70.5503 20.46C70.5503 20.3133 70.5969 20.1533 70.6903 19.98C70.7836 19.8 70.9036 19.6467 71.0503 19.52C70.7703 19.3867 70.5503 19.1933 70.3903 18.94C70.2369 18.6867 70.1603 18.3933 70.1603 18.06C70.1603 17.5667 70.3236 17.1667 70.6503 16.86C70.9769 16.5533 71.3969 16.4 71.9103 16.4C72.2836 16.4 72.6136 16.4867 72.9003 16.66C73.1736 16.32 73.4036 16.08 73.5903 15.94L74.0203 16.44L73.9603 16.59C73.5803 16.7767 73.3469 16.8933 73.2603 16.94ZM71.1103 21.08C70.8636 21.3067 70.7403 21.57 70.7403 21.87C70.7403 22.1767 70.8636 22.41 71.1103 22.57C71.3636 22.73 71.7036 22.81 72.1303 22.81C72.5636 22.81 72.9303 22.72 73.2303 22.54C73.3369 22.3867 73.3903 22.1767 73.3903 21.91C73.3903 21.6433 73.3069 21.4667 73.1403 21.38C72.9736 21.2933 72.7269 21.2333 72.4003 21.2C71.9536 21.1533 71.6003 21.13 71.3403 21.13C71.2736 21.1233 71.1969 21.1067 71.1103 21.08ZM70.9403 18.07C70.9403 18.3967 71.0269 18.6533 71.2003 18.84C71.3736 19.02 71.6136 19.11 71.9203 19.11C72.2336 19.11 72.4803 19.0567 72.6603 18.95C72.7136 18.8833 72.7603 18.7567 72.8003 18.57C72.8469 18.3833 72.8703 18.2033 72.8703 18.03C72.8703 17.7033 72.7836 17.45 72.6103 17.27C72.4369 17.0833 72.1936 16.99 71.8803 16.99C71.5736 16.99 71.3303 17.0433 71.1503 17.15C71.0969 17.2167 71.0469 17.3433 71.0003 17.53C70.9603 17.7167 70.9403 17.8967 70.9403 18.07ZM75.2432 20.21V17.22L74.5432 17.11L74.4832 16.89L75.8532 16.42L76.0532 16.5V20.46L76.8432 20.78L76.7832 21H74.5432L74.4832 20.78L74.9332 20.59C75.0532 20.5433 75.1332 20.4933 75.1732 20.44C75.2198 20.3867 75.2432 20.31 75.2432 20.21ZM75.5932 15.38C75.4398 15.38 75.3098 15.33 75.2032 15.23C75.1032 15.1233 75.0532 14.9933 75.0532 14.84C75.0532 14.68 75.1032 14.5467 75.2032 14.44C75.3098 14.3333 75.4398 14.28 75.5932 14.28C75.7532 14.28 75.8865 14.3333 75.9932 14.44C76.0998 14.5467 76.1532 14.68 76.1532 14.84C76.1532 14.9933 76.0998 15.1233 75.9932 15.23C75.8865 15.33 75.7532 15.38 75.5932 15.38ZM77.818 20.11V16.98H77.118L77.058 16.76L77.818 16.42L78.258 15.49L78.628 15.56V16.5H79.818L79.928 16.62L79.828 17L78.628 16.96V19.88C78.628 20.1267 78.678 20.31 78.778 20.43C78.878 20.5433 79.0547 20.6 79.308 20.6H79.878L79.928 20.88C79.508 21.0133 79.138 21.08 78.818 21.08C78.498 21.08 78.2513 20.99 78.078 20.81C77.9047 20.63 77.818 20.3967 77.818 20.11ZM81.1549 19.67C81.1549 19.95 81.2315 20.1467 81.3849 20.26C81.5382 20.3733 81.7149 20.43 81.9149 20.43C82.1215 20.43 82.3949 20.3733 82.7349 20.26L82.7549 19.1C81.9015 19.1467 81.3715 19.2933 81.1649 19.54C81.1582 19.5733 81.1549 19.6167 81.1549 19.67ZM82.7449 20.7C82.3115 20.9533 81.9149 21.08 81.5549 21.08C81.1949 21.08 80.9082 20.9667 80.6949 20.74C80.4882 20.5067 80.3849 20.2133 80.3849 19.86C80.3849 19.5 80.5582 19.2233 80.9049 19.03C81.2582 18.8367 81.8749 18.7133 82.7549 18.66L82.7649 18.01C82.7715 17.71 82.6982 17.47 82.5449 17.29C82.3982 17.1033 82.1949 17.01 81.9349 17.01C81.6749 17.01 81.4482 17.04 81.2549 17.1L81.1749 17.86L80.9349 17.93L80.3849 17.15C80.5315 16.9833 80.7515 16.82 81.0449 16.66C81.3382 16.5 81.6882 16.42 82.0949 16.42C83.0882 16.42 83.5849 17.0233 83.5849 18.23L83.5349 20.46L84.2249 20.7L84.1649 20.92L83.3149 21.08L83.1149 21L82.7949 20.72L82.7449 20.7ZM85.2115 20.21V14.92L84.5115 14.81L84.4515 14.59L85.8215 14.12L86.0215 14.2V20.46L86.8115 20.78L86.7515 21H84.5115L84.4515 20.78L84.9015 20.59C85.0215 20.5433 85.1015 20.4933 85.1415 20.44C85.1882 20.3867 85.2115 20.31 85.2115 20.21Z" fill="black"/>
</svg>
