<svg width="22" height="11" viewBox="0 0 22 11" fill="none" xmlns="http://www.w3.org/2000/svg">
<path d="M0.78125 2.05558H21.0938C21.5252 2.05558 21.875 1.87476 21.875 1.65168V0.641913C21.875 0.41883 21.5252 0.238007 21.0938 0.238007H0.78125C0.349756 0.238007 0 0.41883 0 0.641913V1.65168C0 1.87476 0.349756 2.05558 0.78125 2.05558ZM0.78125 6.09465H21.0938C21.5252 6.09465 21.875 5.91382 21.875 5.69074V4.68098C21.875 4.45789 21.5252 4.27707 21.0938 4.27707H0.78125C0.349756 4.27707 0 4.45789 0 4.68098V5.69074C0 5.91382 0.349756 6.09465 0.78125 6.09465ZM0.78125 10.1337H21.0938C21.5252 10.1337 21.875 9.95289 21.875 9.7298V8.72004C21.875 8.49696 21.5252 8.31613 21.0938 8.31613H0.78125C0.349756 8.31613 0 8.49696 0 8.72004V9.7298C0 9.95289 0.349756 10.1337 0.78125 10.1337Z" fill="white"/>
</svg>
